<?xml version="1.0" encoding="utf-8"?>
<!-- Generator: Adobe Illustrator 23.0.3, SVG Export Plug-In . SVG Version: 6.00 Build 0)  -->
<svg version="1.1" id="Layer_1" xmlns="http://www.w3.org/2000/svg" xmlns:xlink="http://www.w3.org/1999/xlink" x="0px" y="0px"
	 viewBox="0 0 32 32" style="enable-background:new 0 0 32 32;" xml:space="preserve">
<style type="text/css">
	.st0{fill:#FF4400;}
	.st1{fill:#FFFFFF;}
</style>
<g id="Group_14" transform="translate(-1675.646 -80.229)">
	<path id="Rectangle_2" class="st0" d="M1679.73,94.88h24.35c0.93,0,1.68,0.95,1.68,2.11l0,0c0,1.17-0.75,2.11-1.68,2.11h-24.35
		c-0.93,0-1.68-0.95-1.68-2.11l0,0C1678.06,95.83,1678.81,94.88,1679.73,94.88z"/>
	<path id="Rectangle_10" class="st0" d="M1678.74,95.24l9.04-7.32c0.91-0.73,2.24-0.59,2.97,0.31l0,0c0.73,0.91,0.59,2.24-0.31,2.97
		l-9.04,7.32c-0.91,0.73-2.24,0.59-2.97-0.31l0,0C1677.7,97.31,1677.84,95.97,1678.74,95.24z"/>
	<path id="Rectangle_11" class="st0" d="M1681.69,95.51l8.64,7.78c0.87,0.78,0.94,2.12,0.16,2.98l0,0
		c-0.78,0.87-2.12,0.94-2.98,0.16l-8.64-7.78c-0.87-0.78-0.94-2.12-0.16-2.98l0,0C1679.48,94.8,1680.82,94.73,1681.69,95.51z"/>
</g>
</svg>
