<svg id="Layer_1" data-name="Layer 1" xmlns="http://www.w3.org/2000/svg" viewBox="0 0 954.58 999"><title>BryanAlano Logo</title><path fill="#FF4400" d="M356.3,3.53a31.89,31.89,0,0,1,10,6.38,30.34,30.34,0,0,1,6.7,9.41,27.44,27.44,0,0,1,2.46,11.56V288.74H294.71V60.7H274.36V492h-80.7V1.19H344.09A31.83,31.83,0,0,1,356.3,3.53Z" transform="translate(0.33 -1)"/><path fill="#FF4400" d="M172.28,221.16a14.9,14.9,0,0,1-2.47,8.22,23.1,23.1,0,0,1-6.73,6.7,35.25,35.25,0,0,1-10,4.51,44.14,44.14,0,0,1-12.26,1.65,44.13,44.13,0,0,1,12.26,1.66,35.25,35.25,0,0,1,10,4.51,23,23,0,0,1,6.73,6.7,14.9,14.9,0,0,1,2.47,8.22V471.57a14.85,14.85,0,0,1-2.66,8,23.72,23.72,0,0,1-6.8,6.47,36.34,36.34,0,0,1-9.93,4.38A44.09,44.09,0,0,1,140.83,492H-.33V1.22H140.83a44.14,44.14,0,0,1,12.26,1.65,35.25,35.25,0,0,1,10,4.51A23.32,23.32,0,0,1,169.81,14a14.72,14.72,0,0,1,2.47,8.18ZM73.44,60.81v156h25v-156Zm0,389.14h25V263.33h-25Z" transform="translate(0.33 -1)"/><path fill="#FF4400" d="M568.14,541.49a28,28,0,0,1-2.45,11.63,30.13,30.13,0,0,1-6.7,9.47A32,32,0,0,1,549.1,569,31.42,31.42,0,0,1,537,571.31H427.58a32.08,32.08,0,0,1-22.17-8.72,30.13,30.13,0,0,1-6.7-9.47,27.9,27.9,0,0,1-2.46-11.63V379.12h73.87V509.41h24.16V368h-98V1.22h73.87V305.43h24.16V1l73.86.22V541.49Z" transform="translate(0.33 -1)"/><path fill="#FF4400" d="M742.33,3.55a32.08,32.08,0,0,1,10,6.38,30.23,30.23,0,0,1,6.72,9.41,27.3,27.3,0,0,1,2.47,11.56V492H620.42a32.28,32.28,0,0,1-22.25-8.72,29.85,29.85,0,0,1-6.72-9.48A27.67,27.67,0,0,1,589,462.21V216.87h98.26V60.72H662.67V206.89H589V30.9a27.3,27.3,0,0,1,2.47-11.56,30.23,30.23,0,0,1,6.72-9.41,32.21,32.21,0,0,1,22.25-8.71H730.08A32.07,32.07,0,0,1,742.33,3.55Zm-55.09,429V276.37H662.67V432.52Z" transform="translate(0.33 -1)"/><path fill="#FF4400" d="M255,511.52a32,32,0,0,1,10,6.38,30.38,30.38,0,0,1,6.7,9.42,27.56,27.56,0,0,1,2.45,11.56V1000H133.58a32.08,32.08,0,0,1-22.17-8.72,30,30,0,0,1-6.7-9.47,27.86,27.86,0,0,1-2.45-11.63V724.84h97.88V568.69H175.66V714.86h-73.4v-176a27.4,27.4,0,0,1,2.45-11.56,30.38,30.38,0,0,1,6.7-9.42,32,32,0,0,1,22.17-8.71H242.82A32.05,32.05,0,0,1,255,511.52Zm-54.89,429V784.35H175.66V940.5Z" transform="translate(0.33 -1)"/><path fill="#FF4400" d="M935.13,3.53a31.78,31.78,0,0,1,10,6.38,30.34,30.34,0,0,1,6.7,9.41,27.44,27.44,0,0,1,2.46,11.56V492H880.36V60.7H856.1V492H782.36V1.19H922.92A31.83,31.83,0,0,1,935.13,3.53Z" transform="translate(0.33 -1)"/><path fill="#FF4400" d="M375.42,305.42V1000H294.66V305.42Z" transform="translate(0.33 -1)"/><path fill="#FF4400" d="M549.1,586.5a33,33,0,0,1,10,5.4,26.22,26.22,0,0,1,6.71,8,20.34,20.34,0,0,1,2.46,9.78V1000H427.52a37,37,0,0,1-12.22-2,32.82,32.82,0,0,1-10-5.4,25.94,25.94,0,0,1-6.71-8,20.52,20.52,0,0,1-2.46-9.84V767.07H494.3V634.89H470.1V758.62H396.16v-149a20.23,20.23,0,0,1,2.46-9.78,26.22,26.22,0,0,1,6.71-8,33,33,0,0,1,10-5.4,37,37,0,0,1,12.22-2H536.88A37.06,37.06,0,0,1,549.1,586.5ZM494.3,950.65V818.1H470.1V950.65Z" transform="translate(0.33 -1)"/><path fill="#FF4400" d="M935.13,511.9a31.6,31.6,0,0,1,10,6.38,30.29,30.29,0,0,1,6.7,9.4,27.4,27.4,0,0,1,2.46,11.55v431a27.74,27.74,0,0,1-2.46,11.61,30,30,0,0,1-6.7,9.47,31.6,31.6,0,0,1-10,6.38,32,32,0,0,1-12.21,2.33H813.68a32.09,32.09,0,0,1-12.21-2.33,31.67,31.67,0,0,1-10-6.38,29.89,29.89,0,0,1-6.71-9.47,27.89,27.89,0,0,1-2.45-11.61v-431a27.55,27.55,0,0,1,2.45-11.55,30.16,30.16,0,0,1,6.71-9.4,31.67,31.67,0,0,1,10-6.38,32.09,32.09,0,0,1,12.21-2.33H922.92A32,32,0,0,1,935.13,511.9Zm-79,428.63h24.26V569H856.1Z" transform="translate(0.33 -1)"/><path fill="#FF4400" d="M742.16,512.22a31.78,31.78,0,0,1,10,6.37,30.07,30.07,0,0,1,6.72,9.4,27.32,27.32,0,0,1,2.46,11.54V1000h-74V569.3H662.58V1000H589V509.88H729.92A32.06,32.06,0,0,1,742.16,512.22Z" transform="translate(0.33 -1)"/></svg>