<?xml version="1.0" encoding="utf-8"?>
<!-- Generator: Adobe Illustrator 23.0.2, SVG Export Plug-In . SVG Version: 6.00 Build 0)  -->
<svg version="1.1" id="Layer_1" xmlns="http://www.w3.org/2000/svg" xmlns:xlink="http://www.w3.org/1999/xlink" x="0px" y="0px"
	 viewBox="0 0 32 32" style="enable-background:new 0 0 32 32;" xml:space="preserve">
<style type="text/css">
	.st0{fill:#FFFFFF;}
</style>
<g id="Group_22_1_" transform="translate(-1666 -75)">
	<path id="Rectangle_1_1_" class="st0" d="M1669,80h26v2.1l0,0c0,1.2,0,2.1,0,2.1h-26v-2.1l0,0C1669,80.9,1669,80,1669,80z"/>
	<path id="Rectangle_2_2_" class="st0" d="M1669,88.9h26V91l0,0c0,1.2,0,2.1,0,2.1h-26V91l0,0C1669,89.8,1669,88.9,1669,88.9z"/>
	<path id="Rectangle_3_1_" class="st0" d="M1669,97.7h26v2.1l0,0c0,1.2,0,2.1,0,2.1h-26V97.7z"/>
</g>
</svg>
