<?xml version="1.0" encoding="utf-8"?>
<!-- Generator: Adobe Illustrator 23.0.3, SVG Export Plug-In . SVG Version: 6.00 Build 0)  -->
<svg version="1.1" id="Layer_1" xmlns="http://www.w3.org/2000/svg" xmlns:xlink="http://www.w3.org/1999/xlink" x="0px" y="0px"
	 viewBox="0 0 32 32" style="enable-background:new 0 0 32 32;" xml:space="preserve">
<style type="text/css">
	.st0{fill:#FFFFFF;}
</style>
<g id="Group_22" transform="translate(-1666 -75)">
	<path id="Rectangle_1" class="st0" d="M1670.47,79.61h8.33c0.75,0,1.35,0.78,1.35,1.74l0,0c0,0.96-0.6,1.74-1.35,1.74h-8.33
		c-0.75,0-1.35-0.78-1.35-1.74l0,0C1669.12,80.39,1669.72,79.61,1670.47,79.61z"/>
	<path id="Rectangle_2_1_" class="st0" d="M1682.01,89.75h12.82c0.75,0,1.35,0.78,1.35,1.74l0,0c0,0.96-0.6,1.74-1.35,1.74h-12.82
		c-0.75,0-1.35-0.78-1.35-1.74l0,0C1680.66,90.53,1681.27,89.75,1682.01,89.75z"/>
	<path id="Rectangle_3" class="st0" d="M1669.57,100.45h25.27c0.75,0,1.35,0.78,1.35,1.74l0,0c0,0.96-0.6,1.74-1.35,1.74h-25.27
		c-0.75,0-1.35-0.78-1.35-1.74l0,0C1668.22,101.22,1668.83,100.45,1669.57,100.45z"/>
</g>
</svg>
